<svg xmlns="http://www.w3.org/2000/svg" xmlns:xlink="http://www.w3.org/1999/xlink" version="1.1" x="0px" y="0px" viewBox="0 0 335.51 241.39" style="enable-background:new 0 0 335.51 241.39;" xml:space="preserve">
<style type="text/css">
	.st0{display:none;}
	.st1{display:inline;}
	.st2{fill:#FFFFFF;}
	.st3{fill:#11D9C5;}
	.st4{fill:#162440;}
</style>
<g id="photos">
</g>
<g id="Capa_1">
</g>
<g id="Capa_2">
	<g>
		<g id="ZRAzCN_00000066493028351296399080000000685710602337790338_">
			<g>
				<path class="st4" d="M124.94,42.3c-24.64,5.04-70.62,26.04-74.11,68c-3,36,9.24,76.79,73,87c51.89,8.31,121,3,121,3      s-19,41-19,40.89c-41.79,0.11-106,2.11-143.09-8.94C26.83,212.3-0.17,174.3,0,118.21C0.19,57.29,56.83,4.3,124.83,1.3      c64.75-2.27,145.86-0.99,210.69-0.39c-6.69,13.39-16.69,37.39-16.69,37.39S173.83,32.3,124.94,42.3z"/>
				<path class="st3" d="M292.76,95.51c0,0-14.93,31.78-23.93,50.86c-36.46-0.08-89.11-0.06-126.39,0      c-17.68,0.03-37.21-4.41-37.01-25.16c0.2-21.08,20.59-25.66,37.84-25.7C165.63,95.46,292.76,95.51,292.76,95.51z"/>
			</g>
		</g>
	</g>
</g>
</svg>
