<svg width="416" height="58" viewBox="0 0 481 67" fill="none" xmlns="http://www.w3.org/2000/svg">
<path d="M56.6542 13.929C64.4305 13.929 72.2583 14.4628 79.9574 13.6845C83.3342 13.3436 87.2963 11.0346 89.4704 8.37171C92.8472 4.24236 90.6153 0.331694 85.2059 0.280238C67.37 0.113006 49.5147 -0.285779 31.6981 0.338126C15.1035 0.923439 2.49031 12.9256 0.322722 28.684C-1.81914 44.3138 6.82548 59.7827 22.5324 63.6548C33.1195 66.2662 44.665 65.1213 55.7859 65.2885C57.5097 65.3143 59.8895 63.7449 60.8479 62.2141C62.1922 60.0722 63.3435 57.107 62.8997 54.8172C62.6553 53.5501 59.0341 52.2637 56.8794 52.1544C49.8042 51.7942 42.6453 52.5467 35.6409 51.7556C30.6175 51.1896 25.1696 49.7938 21.0209 47.0795C14.6661 42.9245 12.8587 34.595 15.1871 27.4169C17.9271 18.9588 24.2048 14.8294 32.6436 14.3213C40.6193 13.8389 56.6478 14.0254 56.6478 13.9354L56.6542 13.929Z" fill="white"/>
<path d="M32.65 14.3153C24.2112 14.8234 17.9336 18.9592 15.1935 27.4109C12.8651 34.589 14.6725 42.912 21.0273 47.0735C25.176 49.7878 30.6239 51.1836 35.6473 51.7496C42.6518 52.5343 49.772 51.9168 56.8858 52.1484C59.0405 52.2577 62.6617 53.5441 62.9062 54.8112C63.35 57.101 62.1986 60.0662 60.8543 62.208C59.896 63.7388 57.5161 65.3082 55.7924 65.2825C44.6714 65.1153 33.126 66.2538 22.5389 63.6488C6.82548 59.7832 -1.81914 44.3142 0.322715 28.6844C2.4903 12.926 15.1035 0.923843 31.6981 0.344962C49.5147 -0.278943 67.37 0.119842 85.2059 0.287074C90.6153 0.33853 92.8472 4.24919 89.4704 8.37854C87.2963 11.035 83.3342 13.3505 79.9574 13.6914C72.2583 14.4697 64.4305 13.9358 56.6542 13.9358C56.6542 14.0323 40.6257 13.8393 32.65 14.3217V14.3153Z" fill="#162440"/>
<path d="M76.4646 26.0342C76.3617 28.9544 75.7185 34.9683 73.8597 36.9815C72.1359 38.8468 67.0032 39.9403 64.2438 40.0303C53.9976 40.3648 45.3659 40.0174 35.1068 40.0303C30.2442 40.0367 26.2435 38.6217 26.3014 32.9165C26.3593 27.1148 30.5916 26.0535 35.3384 26.0407C41.4938 26.0278 76.4904 25.3074 76.4646 26.0407V26.0342Z" fill="#11D9C5"/>
<path d="M103.701 40.2932L89.4605 17.749H100.626L109.001 32.5619L117.806 17.749H128.972L114.301 40.2932L130.619 65.4874H119.453L109.001 48.0245L97.9765 65.4874H86.8105L103.701 40.2932V40.2932Z" fill="#162440"/>
<path d="M151.363 17.749C156.733 17.749 160.451 18.3215 163.957 21.396C167.822 24.8307 168.826 29.481 168.826 32.9157C168.826 34.7745 168.536 39.9266 164.889 43.58C162.239 46.23 158.303 47.7994 152.797 47.7994H146.783V65.4745H137.482V17.749H151.369H151.363ZM146.783 39.7915H150.578C152.366 39.7915 154.656 39.7915 156.663 38.2864C158.38 36.9293 159.242 34.781 159.242 32.7034C159.242 30.0535 157.955 28.2654 156.592 27.262C154.662 25.9048 152.225 25.7569 150.006 25.7569H146.783V39.7851V39.7915Z" fill="#162440"/>
<path d="M224.359 41.6503C224.359 56.1802 213.913 66.555 198.881 66.555C183.85 66.555 173.404 56.1802 173.404 41.6503C173.404 27.1204 183.85 16.6748 198.881 16.6748C213.913 16.6748 224.359 27.1268 224.359 41.6503ZM214.769 41.6503C214.769 31.9894 208.182 25.12 198.881 25.12C189.581 25.12 182.994 31.9894 182.994 41.6503C182.994 51.3112 189.581 58.1098 198.881 58.1098C208.182 58.1098 214.769 51.3112 214.769 41.6503Z" fill="#162440"/>
<path d="M232.947 65.481V17.749H239.386L268.439 49.5939V17.749H277.74V65.481H271.301L242.248 33.5653V65.481H232.947Z" fill="#162440"/>
<path d="M315.102 25.7633H297.928V36.4276H314.388V44.4419H297.928V57.4667H315.102V65.481H288.621V17.749H315.102V25.7633Z" fill="#162440"/>
<path d="M324.119 65.481V17.749H330.558L359.611 49.5939V17.749H368.912V65.481H362.473L333.42 33.5653V65.481H324.119V65.481Z" fill="#162440"/>
<path d="M394.827 25.7633V65.481H385.526V25.7633H374.791V17.749H405.562V25.7633H394.827V25.7633Z" fill="#162440"/>
<path d="M420.728 17.749V65.481H411.428V17.749H420.728Z" fill="#162440"/>
<path d="M480.269 41.6503C480.269 56.1802 469.823 66.555 454.792 66.555C439.76 66.555 429.314 56.1802 429.314 41.6503C429.314 27.1204 439.76 16.6748 454.792 16.6748C469.823 16.6748 480.269 27.1268 480.269 41.6503ZM470.679 41.6503C470.679 31.9894 464.092 25.12 454.792 25.12C445.491 25.12 438.905 31.9894 438.905 41.6503C438.905 51.3112 445.491 58.1098 454.792 58.1098C464.092 58.1098 470.679 51.3112 470.679 41.6503Z" fill="#162440"/>
</svg>
