<svg width="259" height="37" viewBox="0 0 259 37" fill="none" xmlns="http://www.w3.org/2000/svg">
<path d="M30.5529 8.21287C34.7465 8.21287 38.9679 8.50077 43.1199 8.08106C44.941 7.89722 47.0777 6.65196 48.2501 5.21592C50.0712 2.98902 48.8676 0.88005 45.9504 0.852301C36.3317 0.762114 26.7026 0.547055 17.0943 0.883519C8.1451 1.19917 1.34299 7.67175 0.174039 16.1701C-0.981036 24.599 3.68089 32.9412 12.1514 35.0294C17.8609 36.4376 24.0872 35.8202 30.0846 35.9104C31.0142 35.9243 32.2976 35.0779 32.8145 34.2524C33.5394 33.0973 34.1603 31.4982 33.921 30.2634C33.7892 29.58 31.8363 28.8863 30.6743 28.8273C26.8587 28.6331 22.998 29.0389 19.2206 28.6123C16.5116 28.307 13.5736 27.5543 11.3363 26.0905C7.90923 23.8497 6.93453 19.3578 8.19019 15.4867C9.66786 10.9254 13.0533 8.69849 17.6042 8.42446C21.9054 8.16431 30.5494 8.2649 30.5494 8.21634L30.5529 8.21287Z" fill="white"/>
<path d="M17.6077 8.42045C13.0568 8.69448 9.67132 10.9249 8.19366 15.4827C6.93799 19.3538 7.91269 23.8423 11.3398 26.0865C13.5771 27.5503 16.5151 28.303 19.2241 28.6083C23.0015 29.0314 26.8414 28.6984 30.6777 28.8233C31.8397 28.8823 33.7926 29.576 33.9244 30.2594C34.1638 31.4942 33.5429 33.0933 32.8179 34.2484C32.3011 35.0739 31.0177 35.9203 30.0881 35.9064C24.0907 35.8162 17.8644 36.4302 12.1549 35.0253C3.68089 32.9407 -0.981039 24.5984 0.174036 16.1695C1.34299 7.67122 8.14509 1.19863 17.0943 0.886448C26.7026 0.549985 36.3317 0.765044 45.9504 0.85523C48.8676 0.88298 50.0712 2.99195 48.2501 5.21885C47.0777 6.65142 44.941 7.90015 43.1199 8.08399C38.9679 8.5037 34.7465 8.2158 30.5529 8.2158C30.5529 8.26783 21.9089 8.16377 17.6077 8.42392V8.42045Z" fill="white"/>
<path d="M41.2363 14.7412C41.1808 16.316 40.8339 19.5592 39.8315 20.6449C38.9018 21.6509 36.1338 22.2405 34.6458 22.2891C29.1201 22.4695 24.4651 22.2822 18.9326 22.2891C16.3102 22.2926 14.1527 21.5294 14.1839 18.4527C14.2151 15.324 16.4975 14.7516 19.0574 14.7447C22.377 14.7377 41.2502 14.3493 41.2363 14.7447V14.7412Z" fill="#11D9C5"/>
<path d="M55.9213 22.4293L48.2416 10.2715H54.2633L58.7795 18.2599L63.5281 10.2715H69.5498L61.6377 22.4293L70.4378 36.0161H64.4161L58.7795 26.5986L52.8342 36.0161H46.8125L55.9213 22.4293V22.4293Z" fill="white"/>
<path d="M81.6241 10.2715C84.5205 10.2715 86.5254 10.5802 88.4158 12.2382C90.5005 14.0905 91.0416 16.5984 91.0416 18.4507C91.0416 19.4531 90.8855 22.2315 88.9188 24.2018C87.4897 25.6309 85.3668 26.4772 82.3976 26.4772H79.1544V36.0092H74.1387V10.2715H81.6276H81.6241ZM79.1544 22.1587H81.2009C82.1652 22.1587 83.4001 22.1587 84.4823 21.347C85.4085 20.6151 85.8733 19.4566 85.8733 18.3362C85.8733 16.9071 85.1795 15.9428 84.4442 15.4017C83.4036 14.6698 82.0889 14.59 80.8922 14.59H79.1544V22.1552V22.1587Z" fill="white"/>
<path d="M120.991 23.1613C120.991 30.9971 115.358 36.5921 107.251 36.5921C99.1449 36.5921 93.5117 30.9971 93.5117 23.1613C93.5117 15.3255 99.1449 9.69238 107.251 9.69238C115.358 9.69238 120.991 15.329 120.991 23.1613ZM115.819 23.1613C115.819 17.9513 112.267 14.2468 107.251 14.2468C102.235 14.2468 98.6835 17.9513 98.6835 23.1613C98.6835 28.3713 102.235 32.0377 107.251 32.0377C112.267 32.0377 115.819 28.3713 115.819 23.1613Z" fill="white"/>
<path d="M125.621 36.0127V10.2715H129.093L144.761 27.445V10.2715H149.777V36.0127H146.305L130.637 18.801V36.0127H125.621Z" fill="white"/>
<path d="M169.927 14.5935H160.666V20.3446H169.542V24.6666H160.666V31.6907H169.927V36.0127H155.646V10.2715H169.927V14.5935Z" fill="white"/>
<path d="M174.791 36.0127V10.2715H178.263L193.931 27.445V10.2715H198.947V36.0127H195.475L179.807 18.801V36.0127H174.791V36.0127Z" fill="white"/>
<path d="M212.92 14.5935V36.0127H207.904V14.5935H202.115V10.2715H218.709V14.5935H212.92V14.5935Z" fill="white"/>
<path d="M226.889 10.2715V36.0127H221.873V10.2715H226.889Z" fill="white"/>
<path d="M259 23.1613C259 30.9971 253.367 36.5921 245.261 36.5921C237.155 36.5921 231.521 30.9971 231.521 23.1613C231.521 15.3255 237.155 9.69238 245.261 9.69238C253.367 9.69238 259 15.329 259 23.1613ZM253.829 23.1613C253.829 17.9513 250.277 14.2468 245.261 14.2468C240.245 14.2468 236.693 17.9513 236.693 23.1613C236.693 28.3713 240.245 32.0377 245.261 32.0377C250.277 32.0377 253.829 28.3713 253.829 23.1613Z" fill="white"/>
</svg>

